<?xml version="1.0" encoding="UTF-8"?>
<svg version="1.1" xmlns="http://www.w3.org/2000/svg" width="539" height="528">
<path d="M0 0 C177.87 0 355.74 0 539 0 C539 174.24 539 348.48 539 528 C361.13 528 183.26 528 0 528 C0 353.76 0 179.52 0 0 Z " fill="#010101" transform="translate(0,0)"/>
<path d="M0 0 C177.87 0 355.74 0 539 0 C539 174.24 539 348.48 539 528 C361.13 528 183.26 528 0 528 C0 353.76 0 179.52 0 0 Z M27.64107931 31.83085787 C26.67410505 35.10269112 26.72371175 38.32594132 26.74273109 41.70627403 C26.73922502 42.49080885 26.73571895 43.27534366 26.73210663 44.08365226 C26.72275786 46.72847583 26.72772486 49.37308088 26.73257446 52.01791382 C26.72883996 53.92687429 26.72423924 55.83583322 26.71884382 57.74478972 C26.7065738 63.00311475 26.70687898 68.26137635 26.70923257 73.51971245 C26.70963972 79.18580488 26.69861132 84.8518767 26.68911743 90.51795959 C26.67248477 101.62338162 26.66700687 112.72878243 26.66589268 123.83421586 C26.66494332 132.85819599 26.66083866 141.8821691 26.65449142 150.906147 C26.63974148 172.31101981 26.62744235 193.71588568 26.62848854 215.12076378 C26.6285197 215.8055127 26.62855086 216.49026163 26.62858296 217.19576052 C26.62874918 220.66647176 26.62894726 224.13718299 26.62915237 227.60789423 C26.62919226 228.29720875 26.62923215 228.98652327 26.62927325 229.69672611 C26.62935413 231.09068828 26.62943772 232.48465044 26.62952404 233.87861261 C26.63074974 255.56981802 26.6157338 277.26096092 26.58837891 298.95214844 C26.55766954 323.31340602 26.54047105 347.67461211 26.54230535 372.03589213 C26.54297023 384.9380131 26.53743521 397.84006357 26.51594925 410.74216843 C26.49777541 421.72602956 26.49335885 432.70978824 26.5069681 443.69365786 C26.51351682 449.30043846 26.5135464 454.90702229 26.4962616 460.51378441 C26.48060993 465.64343209 26.48331323 470.7727257 26.50082986 475.90236433 C26.50391725 477.76102179 26.50020247 479.61970516 26.48910971 481.47833209 C26.47505298 484.00000146 26.48552343 486.52041774 26.50222206 489.04204369 C26.4922857 489.76795015 26.48234934 490.49385662 26.47211188 491.24176025 C26.56115246 497.57784582 28.9826824 500.90857508 33.26066738 505.3437143 C36.80455436 507.48645859 39.80869592 507.55387226 43.82932186 507.50057125 C44.61501052 507.50608542 45.40069918 507.51159958 46.21019658 507.51728085 C48.8531707 507.53091825 51.49521121 507.51595634 54.13816833 507.50120544 C56.04799424 507.5050968 57.95781726 507.51073591 59.8676334 507.51797634 C65.12378421 507.53277286 70.37963672 507.5225248 75.63577807 507.50823963 C81.30117642 507.49715749 86.96653198 507.50906332 92.63192749 507.51808167 C103.73390666 507.53203523 114.83577231 507.52444219 125.9377461 507.50940608 C138.85971257 507.49256946 151.78165057 507.49575331 164.70362461 507.49950016 C188.45350905 507.50556051 212.20332676 507.48976141 235.95319483 507.46431253 C257.63784229 507.4411997 279.32242308 507.43580802 301.00708008 507.44604492 C306.55910712 507.44864689 312.11113415 507.4512319 317.66316128 507.45364285 C318.34666258 507.45394029 319.03016387 507.45423774 319.73437733 507.4545442 C337.84844229 507.46215805 355.96249947 507.4556887 374.07656246 507.44494683 C376.67276164 507.44342095 379.26896081 507.44190059 381.86515999 507.44038582 C383.14262383 507.439628 384.42008767 507.43887019 385.73626254 507.43808941 C394.74842468 507.43334226 403.76057177 507.4352011 412.77273369 507.43945122 C423.75290776 507.44437296 434.73301281 507.43841554 445.71317106 507.41855692 C451.31789477 507.40867078 456.9225133 507.40359407 462.52724266 507.41144943 C467.6549592 507.41848929 472.78246317 507.4117413 477.91015161 507.3938458 C479.76810064 507.38979027 481.62606894 507.3908196 483.48401087 507.39736467 C486.00454214 507.40548592 488.52435214 507.39523813 491.044837 507.38031673 C491.77045762 507.38705439 492.49607824 507.39379204 493.24368736 507.40073386 C497.88723952 507.34737272 501.04435993 506.42113457 505 504 C509.07035801 499.50857047 509.14540872 495.20658507 509.13142776 489.39836311 C509.1334804 488.61299417 509.13553303 487.82762523 509.13764787 487.01845723 C509.1433398 484.36483856 509.14185793 481.71127144 509.14044189 479.05764771 C509.14302427 477.14471402 509.14603707 475.23178088 509.1494453 473.31884849 C509.15753344 468.04494666 509.15930587 462.77105843 509.16004276 457.49715114 C509.16189014 451.81606984 509.16943582 446.13499566 509.17617798 440.45391846 C509.18977416 428.02440568 509.19578786 415.59489612 509.20018864 403.16537714 C509.20294858 395.40945396 509.20718545 387.65353204 509.21169281 379.89760971 C509.22388657 358.43787501 509.23422145 336.97814194 509.2375679 315.51840401 C509.23778954 314.13041568 509.23801132 312.74242734 509.23823325 311.35443901 C509.23845389 309.96307106 509.23867438 308.57170311 509.2388947 307.18033516 C509.23933726 304.38894089 509.23978437 301.59754662 509.24023438 298.80615234 C509.24034377 298.11404779 509.24045316 297.42194323 509.24056586 296.70886581 C509.24419783 274.2590094 509.26012319 251.80918526 509.28342474 229.35934121 C509.30800648 205.63279845 509.32173321 181.90627953 509.32293582 158.17972267 C509.32385393 145.24241806 509.32964049 132.3051557 509.34775543 119.3678627 C509.36312256 108.35395431 509.36829693 97.34010123 509.36001733 86.32618417 C509.35609894 80.70336235 509.35709821 75.08065202 509.37107468 69.45784378 C509.38374238 64.31469426 509.38267925 59.17174083 509.37048396 54.02859186 C509.36851454 52.1638655 509.37166229 50.29912559 509.38032833 48.43441834 C509.39133382 45.90714426 509.38399518 43.38057291 509.3719368 40.85331917 C509.37953199 40.12289549 509.38712718 39.39247182 509.39495254 38.6399141 C509.34948004 34.25015336 508.85604083 31.38801611 506 28 C501.44234072 24.9679925 497.34967467 24.56965973 492.01639557 24.61688995 C491.22617632 24.61193044 490.43595707 24.60697092 489.62179178 24.60186112 C486.96958107 24.588891 484.31787263 24.59729411 481.66564941 24.60559082 C479.74671143 24.60070261 477.8277764 24.59451313 475.90884638 24.58713293 C470.63221022 24.57070183 465.35572316 24.57305779 460.07907033 24.5785079 C454.38982758 24.58117414 448.70062493 24.56665403 443.01139832 24.55441284 C431.86479959 24.53334045 420.71825285 24.52881899 409.57163656 24.53060073 C400.51432943 24.53190729 391.45703856 24.52810964 382.3997345 24.52067566 C379.79287863 24.51857652 377.18602276 24.51647892 374.57916689 24.51438284 C373.2817587 24.51333931 371.98435052 24.51229578 370.64762694 24.51122063 C353.07597351 24.49768438 335.50432884 24.49009552 317.93267059 24.49454498 C317.24548798 24.49471694 316.55830536 24.49488889 315.85029903 24.49506606 C312.36733634 24.49595496 308.88437367 24.49689977 305.401411 24.49786407 C304.70967528 24.4980551 304.01793955 24.49824613 303.30524214 24.49844296 C301.90638513 24.49883005 300.50752812 24.49922038 299.10867111 24.49961393 C277.33656416 24.50558557 255.56456346 24.4901386 233.79248047 24.45800781 C209.33524839 24.421945 184.87809516 24.40263989 160.42083311 24.40754652 C147.46954425 24.40979399 134.51836075 24.40450732 121.5670929 24.37965393 C110.54300181 24.35867924 99.51907386 24.35501086 88.49497616 24.37395352 C82.86789145 24.38313444 77.24111121 24.3841822 71.61404991 24.36359787 C66.46590638 24.34497328 61.31831852 24.34929543 56.17019671 24.37214369 C54.30487038 24.376351 52.43950215 24.37205844 50.57422 24.35854775 C48.04333777 24.34146007 45.51441172 24.35502552 42.98360443 24.37638092 C42.25506097 24.36410339 41.5265175 24.35182587 40.77589697 24.3391763 C34.46665831 24.45081216 31.34086401 26.84618144 27.64107931 31.83085787 Z " fill="#030303" transform="translate(0,0)"/>
<path d="M0 0 C177.87 0 355.74 0 539 0 C539 174.24 539 348.48 539 528 C361.13 528 183.26 528 0 528 C0 353.76 0 179.52 0 0 Z M18 19 C12.73528247 25.25756748 11.84978678 29.81863106 11.86577892 37.82283306 C11.86342669 38.61997608 11.86107446 39.41711909 11.85865095 40.23841795 C11.85196116 42.92610467 11.85241917 45.61374303 11.85282898 48.30143738 C11.84953035 50.24125709 11.84580479 52.18107611 11.8416875 54.12089425 C11.83165942 59.46462363 11.82794941 64.80834177 11.82529819 70.15207922 C11.82139758 75.91024925 11.81181914 81.66841036 11.80308533 87.42657471 C11.78331494 101.33830687 11.77325438 115.25003977 11.76435754 129.16178247 C11.75997594 135.71011796 11.75460883 142.25845264 11.74936867 148.80678749 C11.73235649 170.56936968 11.71783655 192.33195093 11.71061993 214.09453869 C11.71014517 215.50195319 11.70966928 216.90936769 11.70919226 218.3167822 C11.70895589 219.0147331 11.70871951 219.71268401 11.70847597 220.43178495 C11.70727477 223.96795104 11.70605932 227.50411712 11.70483398 231.0402832 C11.70459383 231.74204573 11.70435368 232.44380827 11.70410626 233.16683633 C11.69621267 255.92157332 11.67277932 278.67625819 11.64027804 301.43097242 C11.60597968 325.48777122 11.58626995 349.54453933 11.58297569 373.601363 C11.58080873 386.71541208 11.57203279 399.82938456 11.54651451 412.94341087 C11.52483646 424.10980345 11.51674288 435.27610082 11.52648129 446.44251206 C11.53103424 452.14080406 11.5290818 457.83889949 11.50971985 463.53716469 C11.49214685 468.75393071 11.49303831 473.9703559 11.50861714 479.18712524 C11.51100211 481.07410227 11.50662377 482.96110253 11.49478849 484.84804394 C11.16184719 498.01529093 11.16184719 498.01529093 16 510 C16.61128102 510.93743263 16.61128102 510.93743263 17.23491114 511.8938033 C21.35332585 517.3931552 27.02937967 521.26707759 33.92353795 522.28362739 C39.63032618 522.76053754 45.35286818 522.66256723 51.0743866 522.62145996 C53.02493994 522.62579191 54.97548944 522.63231058 56.92602903 522.64082003 C62.27162878 522.65778744 67.61675906 522.6436469 72.96233404 522.62430525 C78.73264379 522.60886503 84.50289651 522.62228346 90.27320862 522.63204956 C101.57071387 522.64657114 112.86803933 522.63434753 124.16552754 522.61293632 C137.31981074 522.58892119 150.47405279 522.59064096 163.62835304 522.59324223 C187.80452831 522.59752772 211.98061519 522.57410563 236.15676134 522.53889475 C258.22488845 522.50689129 280.29293483 522.49485323 302.36108398 522.50097656 C303.77853535 522.50136341 305.19598672 522.50174986 306.61343809 522.50213593 C307.3142016 522.50232728 308.01496511 522.50251862 308.73696388 522.50271577 C312.26455188 522.50367011 315.79213988 522.50458448 319.3197279 522.50545502 C320.01567592 522.50562881 320.71162394 522.5058026 321.4286613 522.50598167 C339.87395566 522.51033659 358.31924084 522.5002462 376.76452905 522.48561716 C378.73107686 522.48405793 378.73107686 522.48405793 380.73735291 522.4824672 C383.37054488 522.4803763 386.00373683 522.47826533 388.63692876 522.47613403 C397.80897786 522.46923518 406.98101549 522.46856965 416.15306664 522.47001648 C427.32633122 522.47145517 438.49952328 522.46178357 449.67276379 522.43807012 C455.37485557 522.42619909 461.07684617 522.4190924 466.77894974 522.42490768 C471.99657632 522.43007173 477.21398896 522.42141868 482.43157891 522.40163308 C484.32102276 522.39688553 486.21048738 522.3972032 488.09992816 522.40304345 C490.66527396 522.41020791 493.22990752 522.39897377 495.79519939 522.38311005 C496.53120287 522.38956185 497.26720635 522.39601365 498.02551296 522.40266097 C506.99491599 522.29832978 512.88319848 518.23673881 519 512 C523.92084983 505.65469364 525.30162513 499.88371729 525.25726891 491.96230602 C525.26252802 490.76819509 525.26252802 490.76819509 525.26789337 489.5499607 C525.27720981 486.87789799 525.27228342 484.20605311 525.26742554 481.53398132 C525.27116167 479.60068405 525.27576304 477.66738828 525.28115618 475.73409492 C525.2934061 470.41767114 525.29312337 465.10131019 525.29076743 459.78487551 C525.29035977 454.05263904 525.30139354 448.32042285 525.31088257 442.5881958 C525.32750429 431.35637645 525.33299264 420.1245781 525.33410732 408.89274748 C525.33505721 399.76443596 525.33916452 390.63613137 525.34550858 381.50782204 C525.36025693 359.84638171 525.37255797 338.18494733 525.37151146 316.5235014 C525.3714803 315.830763 525.37144914 315.1380246 525.37141704 314.42429412 C525.37125083 310.91320913 525.37105275 307.40212414 525.37084763 303.89103916 C525.37080774 303.19372527 525.37076785 302.49641138 525.37072675 301.77796677 C525.37064587 300.3678282 525.37056228 298.95768963 525.37047596 297.54755107 C525.36925043 275.60760194 525.38426414 253.66771464 525.41162109 231.7277832 C525.44234398 207.07825839 525.45952813 182.42877574 525.45769465 157.77923042 C525.45703022 144.72781397 525.46254588 131.67646724 525.48405075 118.62506676 C525.50224163 107.51361392 525.50662705 96.4022624 525.4930319 85.29080113 C525.48649182 79.62085246 525.48642274 73.95109828 525.5037384 68.28116798 C525.51942787 63.09038081 525.51664757 57.89994303 525.49917014 52.7091646 C525.49609117 50.83167114 525.49976628 48.95415187 525.51089029 47.07668885 C525.57638093 35.23914703 525.11402147 25.69186827 516.77734375 16.5703125 C509.93679514 10.52657505 503.13282934 8.84719578 494.23963642 8.86857224 C493.4492469 8.8665196 492.65885738 8.86446697 491.84451666 8.86235213 C489.17980165 8.85667016 486.51513812 8.85814086 483.85041809 8.85955811 C481.92709773 8.85697516 480.0037779 8.85396219 478.08045882 8.8505547 C472.78233409 8.84247319 467.4842229 8.84069449 462.18609273 8.83995724 C456.47700408 8.83810868 450.76792248 8.83056234 445.05883789 8.82382202 C432.56920031 8.81022996 420.07956594 8.80421261 407.58992219 8.79981136 C399.79392761 8.7970504 391.99793428 8.79281331 384.20194054 8.78830719 C362.62464996 8.77611335 341.04736089 8.7657789 319.47006702 8.7624321 C318.07464287 8.76221047 316.67921872 8.76198868 315.28379456 8.76176675 C313.88499742 8.76154611 312.48620027 8.76132562 311.08740312 8.7611053 C308.28116914 8.76066275 305.47493515 8.76021563 302.66870117 8.75976562 C301.62502643 8.75960154 301.62502643 8.75960154 300.56026735 8.75943414 C277.99954775 8.75580352 255.43886027 8.73988339 232.87815297 8.71657526 C209.02626801 8.69197823 185.17440347 8.67826604 161.32250518 8.67706418 C148.32025405 8.67614684 135.31804499 8.67037973 122.31580544 8.65224457 C111.24457719 8.63685735 100.17340401 8.63171498 89.10216711 8.63998267 C83.45251445 8.64389405 77.80297273 8.64293567 72.15333366 8.62892532 C66.98102528 8.61621589 61.80891156 8.61735798 56.63660356 8.62951604 C54.76577944 8.63147816 52.89494168 8.62837089 51.02413676 8.61967167 C37.83280738 8.5622175 27.56096631 8.85579392 18 19 Z " fill="#F7F7F7" transform="translate(0,0)"/>
<path d="M0 0 C1.47583955 0.0001591 2.95168467 0.00585225 4.42749023 0.01586914 C5.20293686 0.01728409 5.97838348 0.01869904 6.77732849 0.02015686 C9.26361893 0.02577194 11.74982059 0.03832693 14.23608398 0.05102539 C15.91772331 0.05603845 17.59936405 0.06060169 19.28100586 0.06469727 C23.41189965 0.07574626 27.54272674 0.09302094 31.67358398 0.11352539 C34.42950551 6.65926359 37.14543394 13.20269686 39.61108398 19.86352539 C40.12276388 21.23984192 40.63448375 22.61614359 41.14624023 23.99243164 C41.40034668 24.67837402 41.65445313 25.36431641 41.91625977 26.07104492 C43.11984129 29.31706782 44.33349812 32.5592943 45.54858398 35.80102539 C45.79012207 36.44563721 46.03166016 37.09024902 46.28051758 37.75439453 C48.41540623 43.44306651 50.57334552 49.12289057 52.73608398 54.80102539 C53.0806665 55.7061084 53.42524902 56.61119141 53.78027344 57.54370117 C55.57902638 62.26246279 57.39814861 66.97236184 59.23608398 71.67602539 C61.6546576 77.93011473 63.84426918 84.26112457 66 90.60986328 C67.90343798 96.14657741 70.06261566 101.53600254 72.33959961 106.92919922 C89.67358398 148.3067904 89.67358398 148.3067904 89.67358398 154.11352539 C78.78358398 154.11352539 67.89358398 154.11352539 56.67358398 154.11352539 C52.22044244 144.09395691 48.99808761 133.56196536 45.67358398 123.11352539 C13.99358398 122.61852539 13.99358398 122.61852539 -18.32641602 122.11352539 C-18.98641602 125.08352539 -19.64641602 128.05352539 -20.32641602 131.11352539 C-20.85634662 132.92456362 -21.41499657 134.72777321 -22.01782227 136.51586914 C-22.32268555 137.42530273 -22.62754883 138.33473633 -22.94165039 139.27172852 C-23.41054687 140.64748047 -23.41054687 140.64748047 -23.88891602 142.05102539 C-24.20538086 142.99526367 -24.5218457 143.93950195 -24.84790039 144.91235352 C-27.17095585 151.80260506 -27.17095585 151.80260506 -28.32641602 154.11352539 C-39.21641602 154.11352539 -50.10641602 154.11352539 -61.32641602 154.11352539 C-59.07722299 145.11675328 -59.07722299 145.11675328 -57.67016602 141.36743164 C-57.32211914 140.43302246 -56.97407227 139.49861328 -56.61547852 138.53588867 C-56.19008789 137.40650879 -55.76469727 136.27712891 -55.32641602 135.11352539 C-54.77124887 133.62526021 -54.21660197 132.13680091 -53.66235352 130.64819336 C-52.05864693 126.34456824 -50.44834727 122.04344358 -48.83569336 117.74316406 C-47.82749862 115.05391313 -46.821064 112.36400771 -45.81469727 109.67407227 C-40.42178567 95.27778856 -40.42178567 95.27778856 -38.32641602 90.11743164 C-34.97391811 81.85656545 -31.9425935 73.4655444 -28.82641602 65.11352539 C-24.31416451 53.01973085 -19.79127179 40.95282486 -14.78979492 29.05102539 C-11.65774723 21.57934959 -8.80279848 14.05277991 -6.19213867 6.3828125 C-4.05540475 0.13840464 -4.05540475 0.13840464 0 0 Z " fill="#FAFAFA" transform="translate(195.326416015625,153.886474609375)"/>
<path d="M0 0 C0.78791156 -0.00436032 1.57582312 -0.00872064 2.38761079 -0.0132131 C5.04402391 -0.02421489 7.69992292 -0.01372453 10.35633278 -0.00342751 C12.27354373 -0.00688213 14.1907527 -0.01164538 16.10795748 -0.01760924 C21.38912192 -0.03017589 26.6701245 -0.02392314 31.95128965 -0.01465058 C37.64192351 -0.00788347 43.33252886 -0.01832974 49.02315712 -0.02659035 C60.17672216 -0.03995542 71.33022676 -0.03703745 82.4837942 -0.02835242 C91.54686861 -0.02158651 100.60992604 -0.02065443 109.67300224 -0.02392387 C110.96127092 -0.02438357 112.2495396 -0.02484327 113.57684673 -0.0253169 C116.19369121 -0.02627605 118.81053569 -0.02724869 121.42738016 -0.02823468 C145.28648529 -0.03655262 169.14555603 -0.02791531 193.00465568 -0.01220688 C214.7898373 0.00202705 236.57496631 0.00075943 258.36014748 -0.01358986 C282.82688033 -0.02965148 307.29357938 -0.03596946 331.76031744 -0.02675307 C334.36832785 -0.02579739 336.97633826 -0.02485428 339.58434868 -0.02392387 C340.86763573 -0.02346105 342.15092278 -0.02299822 343.47309732 -0.02252137 C352.52682799 -0.0199285 361.58054002 -0.02430894 370.63426781 -0.03136253 C381.66569857 -0.03976771 392.69706527 -0.0375182 403.72848867 -0.0215203 C409.35953659 -0.01362389 414.99047763 -0.0105693 420.62152481 -0.02046776 C425.77333155 -0.02938694 430.92493201 -0.02452763 436.07671995 -0.0085351 C437.94344911 -0.00517547 439.81019558 -0.00690777 441.67691366 -0.01416247 C444.20929219 -0.02325147 446.74095911 -0.01396253 449.27330017 0 C450.00241533 -0.0070235 450.73153049 -0.014047 451.48274004 -0.02128333 C456.14035595 0.03023566 459.37319703 0.78930816 463.26249123 3.37752342 C466.61456581 7.35566432 466.68812853 11.22463123 466.64001465 16.22246265 C466.64437497 17.00983969 466.64873529 17.79721672 466.65322775 18.60845366 C466.66420966 21.25702806 466.65374838 23.90508468 466.64344215 26.55365562 C466.64689756 28.46760483 466.65166133 30.38155205 466.65762389 32.29549509 C466.67017971 37.56299882 466.66394267 42.83034007 466.65466523 48.09784448 C466.64789377 53.77550903 466.65834653 59.45314512 466.666605 65.13080406 C466.67996514 76.25682647 466.67705436 87.38278826 466.66836707 98.50881308 C466.66159956 107.54945701 466.66066976 116.59008393 466.66393852 125.63072968 C466.66439822 126.9160875 466.66485792 128.20144533 466.66533155 129.5257534 C466.6662907 132.13671935 466.66726334 134.74768529 466.66824932 137.35865123 C466.67656581 161.15994641 466.66793219 184.96120484 466.65222153 208.76249417 C466.63798608 230.49413298 466.63925682 252.22571906 466.65360451 273.95735741 C466.66966609 298.36659931 466.67598427 322.77580532 466.66676772 347.18505293 C466.66581204 349.78686908 466.66486893 352.38868524 466.66393852 354.9905014 C466.6634757 356.27072936 466.66301287 357.55095731 466.66253602 358.86998005 C466.65994325 367.90168095 466.66432333 376.93336318 466.67137718 385.96506119 C466.67978224 396.96901941 466.67753303 407.97291342 466.66153495 418.97686427 C466.65363862 424.59374237 466.65058382 430.21051331 466.66048241 435.82739067 C466.66940167 440.96620473 466.66454216 446.10481201 466.64854975 451.24360723 C466.64519018 453.10559589 466.6469223 454.96760191 466.65417711 456.82957947 C466.66326636 459.35555096 466.65397695 461.8808091 466.64001465 464.40674305 C466.64703815 465.13396802 466.65406165 465.86119298 466.66129798 466.61045507 C466.60979882 471.25469277 465.72661555 474.440029 463.26249123 478.37752342 C460.69999123 480.19002342 460.69999123 480.19002342 458.26249123 481.37752342 C457.60249123 481.70752342 456.94249123 482.03752342 456.26249123 482.37752342 C453.76763641 482.47944624 451.30042528 482.52042477 448.80510616 482.51733112 C448.02317863 482.52028255 447.2412511 482.52323397 446.4356288 482.52627483 C443.78768099 482.53500988 441.13977664 482.53655045 438.49181557 482.53815269 C436.58529467 482.54288066 434.67877479 482.54803116 432.77225608 482.55357033 C427.51136269 482.56751407 422.25047625 482.57507063 416.98956907 482.58154333 C412.48260458 482.58790338 407.97565155 482.59797499 403.46869419 482.60810398 C388.61715269 482.64146717 373.76560421 482.66295623 358.9140375 482.68130383 C355.04863062 482.68609658 351.18322403 482.69108017 347.31781745 482.69610906 C323.3311509 482.72707708 299.34448302 482.75377628 275.35780239 482.77052784 C269.79893234 482.77446518 264.24006235 482.778477 258.6811924 482.78255272 C257.99056132 482.78305439 257.29993024 482.78355606 256.58837094 482.78407293 C234.1942734 482.80049262 211.8002851 482.83895075 189.40624131 482.88983982 C165.73816322 482.94352615 142.07017118 482.9752437 118.40202826 482.98272473 C105.49700053 482.98739303 92.59215357 483.00220776 79.68718338 483.04246902 C68.69852161 483.07670945 57.71007321 483.0907326 46.72136114 483.07804488 C41.11234396 483.07220406 35.50377837 483.07618227 29.8948288 483.10621452 C24.76183326 483.13347466 19.62961234 483.13315558 14.49660035 483.11070407 C12.63785548 483.10746801 10.77905968 483.11442555 8.92039988 483.1325013 C-6.71218061 483.2753364 -6.71218061 483.2753364 -11.26285839 479.58200741 C-12.65801793 478.05504566 -12.65801793 478.05504566 -13.73750877 476.37752342 C-14.30110901 475.52679755 -14.30110901 475.52679755 -14.87609512 474.6588853 C-16.12118105 471.36140846 -16.01433405 468.14702855 -15.99477768 464.67124939 C-16.00003679 463.49444717 -16.00003679 463.49444717 -16.00540215 462.29387116 C-16.01475091 459.64904759 -16.00978391 457.00444254 -16.00493431 454.3596096 C-16.00866882 452.45064914 -16.01326953 450.5416902 -16.01866496 448.6327337 C-16.03093498 443.37440867 -16.03062979 438.11614707 -16.02827621 432.85781097 C-16.02786905 427.19171854 -16.03889745 421.52564672 -16.04839134 415.85956383 C-16.065024 404.7541418 -16.0705019 393.648741 -16.0716161 382.54330756 C-16.07256545 373.51932743 -16.07667011 364.49535433 -16.08301735 355.47137642 C-16.0977673 334.06650361 -16.11006643 312.66163774 -16.10902023 291.25675964 C-16.10898908 290.57201072 -16.10895792 289.88726179 -16.10892582 289.1817629 C-16.1087596 285.71105166 -16.10856152 282.24034043 -16.1083564 278.7696292 C-16.10831651 278.08031467 -16.10827662 277.39100015 -16.10823552 276.68079731 C-16.10815465 275.28683514 -16.10807105 273.89287298 -16.10798474 272.49891081 C-16.10675904 250.8077054 -16.12177497 229.11656251 -16.14912987 207.42537498 C-16.17983924 183.0641174 -16.19703772 158.70291131 -16.19520342 134.34163129 C-16.19453855 121.43951032 -16.20007356 108.53745985 -16.22155952 95.635355 C-16.23973336 84.65149386 -16.24414993 73.66773519 -16.23054068 62.68386556 C-16.22399196 57.07708496 -16.22396237 51.47050113 -16.24124718 45.86373901 C-16.25689884 40.73409133 -16.25419554 35.60479773 -16.23667891 30.47515909 C-16.23359152 28.61650163 -16.23730631 26.75781826 -16.24839906 24.89919133 C-16.26245579 22.37752196 -16.25198534 19.85710568 -16.23528671 17.33547974 C-16.24522307 16.60957327 -16.25515943 15.8836668 -16.26539689 15.13576317 C-16.18091356 9.12396896 -14.02866606 5.77893074 -9.97110307 1.52611864 C-6.71129988 -0.15019042 -3.58036234 -0.03426922 0 0 Z M-8.18688911 7.42929375 C-10.10998361 11.08571859 -10.29296775 14.14510647 -10.24087334 18.17840385 C-10.2466871 18.96101536 -10.25250086 19.74362687 -10.2584908 20.54995388 C-10.27313328 23.18244443 -10.25918609 25.8140088 -10.24544334 28.44649315 C-10.25005058 30.34878279 -10.2564023 32.25106888 -10.26435232 34.15334749 C-10.28109305 39.38861965 -10.27277771 44.62360118 -10.26040745 49.85887456 C-10.25137868 55.50176379 -10.26531587 61.1446021 -10.27632713 66.78748131 C-10.29414019 77.84500362 -10.29025995 88.90241751 -10.27867657 99.95994413 C-10.26965348 108.94434589 -10.26841337 117.92871719 -10.27277184 126.91312218 C-10.27338477 128.19044264 -10.2739977 129.46776311 -10.27462921 130.78379026 C-10.27590807 133.37841094 -10.27720492 135.97303162 -10.27851957 138.56765229 C-10.28960797 162.21929336 -10.27809691 185.87086452 -10.25714918 209.52249429 C-10.23816633 231.11987296 -10.23986482 252.7171573 -10.25899315 274.31453514 C-10.28040539 298.57178871 -10.28883482 322.82897551 -10.27654409 347.08624029 C-10.27526986 349.67146841 -10.27401238 352.25669653 -10.27277184 354.84192467 C-10.27215473 356.114001 -10.27153763 357.38607734 -10.27090183 358.69670144 C-10.267444 367.67327349 -10.27328659 376.64981213 -10.28269005 385.62637901 C-10.29389317 396.5615808 -10.29090551 407.4966677 -10.26956707 418.43185627 C-10.25903397 424.01420933 -10.25497332 429.59637063 -10.26816368 435.17872238 C-10.28004658 440.28485278 -10.27359291 445.39061292 -10.25225347 450.49670953 C-10.24776997 452.34791165 -10.25009263 454.19914479 -10.25975662 456.05032712 C-10.27185523 458.55954885 -10.25951301 461.06748907 -10.24087334 463.57664299 C-10.250238 464.30168193 -10.25960267 465.02672088 -10.26925111 465.7737307 C-10.21912576 469.13121641 -9.7564657 471.34148017 -8.18688911 474.32575309 C-4.89601967 477.08241288 -2.15298198 477.07268322 1.9559412 477.00672913 C2.73908724 477.01399633 3.52223327 477.02126353 4.32911101 477.02875096 C6.9696127 477.0470886 9.60867773 477.02960573 12.2491703 477.01244164 C14.15472442 477.01819939 16.06027299 477.02613817 17.96580988 477.03607786 C23.21479662 477.05702214 28.463331 477.04660157 33.71231973 477.03114676 C39.36818971 477.01986806 45.02398004 477.03727869 50.67983437 477.05104637 C61.76491873 477.073321 72.84983417 477.06845864 83.93492525 477.05398317 C92.94176256 477.04270696 101.94855241 477.04115301 110.95539474 477.04660225 C112.23562606 477.04736841 113.51585738 477.04813458 114.83488359 477.04892396 C117.43538281 477.05052254 120.03588202 477.0521436 122.63638122 477.05378692 C146.34584825 477.06764987 170.05520636 477.05325487 193.7646558 477.02707393 C215.41559504 477.0033479 237.06638725 477.00546577 258.71732521 477.02937889 C283.03208061 477.05614427 307.34673192 477.06668072 331.66150481 477.05131757 C334.25292717 477.04972477 336.84434955 477.04815292 339.43577194 477.04660225 C340.71090737 477.04583087 341.98604281 477.04505949 343.29981871 477.04426474 C352.29842772 477.03994228 361.29698468 477.04724612 370.29558563 477.05900002 C381.25828386 477.07300416 392.22080303 477.06926905 403.18348067 477.0425963 C408.78003958 477.02942971 414.37629963 477.02435418 419.97285652 477.04084206 C425.09205499 477.05569579 430.21067644 477.04762904 435.32982225 477.0209543 C437.18576278 477.01534984 439.04175164 477.01825349 440.89766132 477.03033324 C443.41354181 477.04545767 445.92742531 477.03003101 448.44320011 477.00672913 C449.53359381 477.02428787 449.53359381 477.02428787 450.64601567 477.04220134 C454.30392911 476.97410966 456.1873271 476.42981221 459.21187156 474.32575309 C461.74940284 470.67747782 461.96100308 467.86934646 461.89169693 463.57664299 C461.89896413 462.79403148 461.90623134 462.01141997 461.91371876 461.20509297 C461.93202307 458.57242766 461.91458899 455.94120931 461.89740944 453.3085537 C461.9031685 451.40626132 461.91110816 449.50397449 461.92104566 447.60169935 C461.94197179 442.36637294 461.93157756 437.13150061 461.91611457 431.89617229 C461.90482859 426.25327163 461.92225009 420.61045053 461.93601418 414.96756554 C461.95828053 403.9100237 461.95343023 392.85265127 461.93895097 381.79510272 C461.9276721 372.81069586 461.92612197 363.82633657 461.93157005 354.84192467 C461.93233622 353.5646042 461.93310238 352.28728373 461.93389177 350.97125658 C461.93549035 348.3766359 461.93711141 345.78201522 461.93875472 343.18739456 C461.95261524 319.53573826 461.93822641 295.88419119 461.91204174 272.23255255 C461.88831315 250.63515604 461.89043627 229.03790693 461.91434669 207.4405117 C461.941112 183.18324771 461.9516488 158.92608807 461.93628538 134.66880655 C461.93469258 132.08357844 461.93312073 129.49835032 461.93157005 126.91312218 C461.93079868 125.64104584 461.9300273 124.36896951 461.92923255 123.05834541 C461.92491026 114.08176612 461.93221349 105.10523903 461.94396782 96.12866783 C461.95797175 85.19344202 461.95423718 74.25839573 461.9275641 63.32319057 C461.91439764 57.74080132 461.9093218 52.15871168 461.92580986 46.57632446 C461.9406637 41.47011832 461.93259669 36.36449067 461.9059221 31.25833732 C461.90031772 29.4071373 461.90322113 27.55588881 461.91530104 25.70471972 C461.93042582 23.19524512 461.91499852 20.6877725 461.89169693 18.17840385 C461.90340276 17.45336491 461.91510859 16.72832597 461.92716914 15.98131615 C461.85900109 12.3285011 461.31271833 10.44973625 459.21187156 7.42929375 C455.55829883 4.88764389 452.74227799 4.67908913 448.44320011 4.74831772 C447.65860063 4.74105051 446.87400116 4.73378331 446.06562594 4.72629589 C443.42620917 4.70799121 440.78823561 4.72542584 438.14882851 4.74260521 C436.24169865 4.73684618 434.33457434 4.72890653 432.42746168 4.71896899 C427.17880347 4.69804272 421.93059818 4.70843714 416.68193805 4.72390008 C411.02474154 4.73518593 405.36762438 4.71776468 399.7104435 4.70400047 C388.62516332 4.6817344 377.54005213 4.68658417 366.45476525 4.70106368 C357.44842001 4.71234209 348.44212222 4.71389288 339.43577194 4.7084446 C337.51519511 4.70729535 337.51519511 4.70729535 335.55581876 4.70612288 C332.95499534 4.70452431 330.35417193 4.70290324 327.75334854 4.70125993 C304.04566235 4.68739964 280.33808513 4.70178816 256.63041655 4.72797291 C234.97932365 4.75170432 213.32837777 4.74957597 191.67728615 4.72566795 C167.36106817 4.69890685 143.04495427 4.68836326 118.72871882 4.70372927 C116.13761081 4.70532207 113.54650278 4.70689392 110.95539474 4.7084446 C109.04292301 4.70960166 109.04292301 4.70960166 107.09181548 4.7107821 C98.09222412 4.71510545 89.0926848 4.70779894 80.0931015 4.69604683 C69.13149683 4.68204766 58.17007126 4.68576747 47.20848721 4.71245055 C41.61204522 4.72562306 36.01590222 4.73068261 30.4194622 4.71420479 C25.30158934 4.69936351 20.18429409 4.7073969 15.06647403 4.73409255 C13.20990825 4.73970228 11.3532942 4.73678171 9.49675917 4.72471361 C6.98244886 4.70961677 4.47014478 4.72498717 1.9559412 4.74831772 C1.2266709 4.73661189 0.4974006 4.72490606 -0.25396881 4.7128455 C-3.76145229 4.77838093 -5.47076689 5.15408198 -8.18688911 7.42929375 Z " fill="#EFEFEF" transform="translate(42.73750877380371,24.62247657775879)"/>
<path d="M0 0 C10.56 0 21.12 0 32 0 C32.02578125 5.08148438 32.0515625 10.16296875 32.078125 15.3984375 C32.10331704 18.63416372 32.12966791 21.86979865 32.16015625 25.10546875 C32.20834849 30.23161054 32.25244641 35.35754076 32.27099609 40.48388672 C32.28623592 44.62090079 32.32080938 48.75735812 32.36830902 52.89412308 C32.38304782 54.46556358 32.39103667 56.0370836 32.39188385 57.60859299 C32.39922817 72.47046145 32.39922817 72.47046145 39.625 85.0625 C44.79343806 89.27885736 50.57266079 88.65068676 57 88 C62.48770639 86.17805233 67.3655303 83.56586454 71 79 C71.40298519 76.29768171 71.56466321 73.99590365 71.54589844 71.29394531 C71.56140495 70.13727104 71.56140495 70.13727104 71.57722473 68.95722961 C71.60667111 66.41398205 71.60815224 63.87152969 71.609375 61.328125 C71.62435547 59.56262696 71.64108234 57.79714294 71.65948486 56.03167725 C71.70318582 51.3890926 71.7231635 46.74669701 71.73822021 42.10394287 C71.75778144 37.36475432 71.79975254 32.62577023 71.83984375 27.88671875 C71.91517582 18.59117425 71.96337759 9.2957777 72 0 C82.23 0 92.46 0 103 0 C103 36.96 103 73.92 103 112 C93.1 112 83.2 112 73 112 C73 107.38 73 102.76 73 98 C72.34 98 71.68 98 71 98 C70.62875 98.86625 70.62875 98.86625 70.25 99.75 C66.79679349 105.96577171 59.91966397 111.03799518 53.265625 113.37109375 C43.21595176 115.30649733 30.01147983 116.35646304 21.06640625 110.67578125 C6.74505333 99.06167841 2.21129457 85.88271687 0 68 C-0.08235691 65.6555191 -0.11789396 63.30905767 -0.11352539 60.96313477 C-0.11367142 60.29886978 -0.11381744 59.6346048 -0.1139679 58.95021057 C-0.11327785 56.78057451 -0.10552854 54.61102709 -0.09765625 52.44140625 C-0.09578884 50.92683458 -0.09436646 49.41226231 -0.09336853 47.89768982 C-0.0895688 43.93081973 -0.07976051 39.96398684 -0.06866455 35.99713135 C-0.05658676 31.22712218 -0.05203607 26.4571005 -0.04621124 21.68708038 C-0.03654718 14.4580278 -0.0173729 7.22905667 0 0 Z " fill="#FCFCFC" transform="translate(300,196)"/>
<path d="M0 0 C2.33986786 2.33986786 2.81930896 3.99734694 3.83984375 7.12890625 C4.18080078 8.16466797 4.52175781 9.20042969 4.87304688 10.26757812 C5.22431641 11.35490234 5.57558594 12.44222656 5.9375 13.5625 C6.28490234 14.62275391 6.63230469 15.68300781 6.99023438 16.77539062 C7.67813663 18.87537095 8.36346704 20.97619559 9.04614258 23.07788086 C9.87326379 25.61174668 10.71746481 28.13877967 11.5703125 30.6640625 C13.13656457 35.34797774 14.53997952 40.07599895 15.9375 44.8125 C17.93805358 51.55390324 20.02187461 58.24164015 22.3359375 64.8828125 C23 67 23 67 23 69 C8.15 69 -6.7 69 -22 69 C-20.65255478 62.26277391 -19.2150589 56.04577773 -17.06640625 49.58984375 C-16.78780258 48.73749649 -16.50919891 47.88514923 -16.22215271 47.00697327 C-15.34095347 44.31535748 -14.45187092 41.62642526 -13.5625 38.9375 C-12.97018191 37.1323324 -12.37838102 35.326995 -11.78710938 33.52148438 C-10.19912443 28.67842016 -8.60340732 23.83797928 -7 19 C-6.73042984 18.18472336 -6.46085968 17.36944672 -6.18312073 16.52946472 C-5.91853561 15.73164078 -5.6539505 14.93381683 -5.38134766 14.11181641 C-5.14412994 13.39579254 -4.90691223 12.67976868 -4.6625061 11.94204712 C-3.7968857 9.40459787 -2.82614006 6.91917049 -1.8125 4.4375 C-1.46832031 3.59058594 -1.12414062 2.74367187 -0.76953125 1.87109375 C-0.38861328 0.94490234 -0.38861328 0.94490234 0 0 Z " fill="#060606" transform="translate(209,181)"/>
<path d="M0 0 C3.3 0 6.6 0 10 0 C10 16.17 10 32.34 10 49 C6.7 49 3.4 49 0 49 C-0.33 48.34 -0.66 47.68 -1 47 C-1.99 47.66 -2.98 48.32 -4 49 C-9.21956421 49.76758297 -13.58237412 49.97461779 -18 46.9375 C-22.58750819 40.19959734 -24.45596111 34.18391045 -23 26 C-20.49790095 20.92073894 -17.11289668 17.45983838 -12 15 C-7.95532074 14.61938401 -4.07447585 14.86567662 0 15 C0 10.05 0 5.1 0 0 Z " fill="#EEEEEE" transform="translate(328,335)"/>
<path d="M0 0 C5.13412868 2.87588411 7.96868713 6.53172179 9.640625 12.1640625 C10.64114555 17.53143839 9.46621238 21.67327433 6.85546875 26.40234375 C4.69323445 29.53793111 2.00796165 31.48039417 -1.359375 33.1640625 C-12.84175034 34.4901111 -12.84175034 34.4901111 -17.9921875 31.77734375 C-22.45755468 27.97931004 -24.95406376 24.40183951 -25.6953125 18.48046875 C-25.78006944 12.5051042 -25.53879923 8.79531638 -21.359375 4.1640625 C-15.29910441 -1.30496218 -7.83329867 -2.77537403 0 0 Z " fill="#F0F0F0" transform="translate(271.359375,350.8359375)"/>
<path d="M0 0 C4.37641611 1.63767163 7.14145466 3.89998878 10 7.5625 C12.34065661 15.6085071 11.90488616 24.51213585 8 32 C3.57931062 38.83884426 -2.55657038 42.87091494 -10 46 C-10.99 46 -11.98 46 -13 46 C-13.99 42.535 -13.99 42.535 -15 39 C-14.33613281 38.63648438 -13.67226562 38.27296875 -12.98828125 37.8984375 C-7.58938907 34.82461568 -3.51909592 32.16134069 0 27 C0 26.34 0 25.68 0 25 C-0.56976563 25.32097656 -1.13953125 25.64195313 -1.7265625 25.97265625 C-5.45943184 27.65950271 -8.98961877 27.68113927 -13 27 C-16.36487686 25.27843509 -18.47664612 22.90397489 -20.375 19.625 C-21.54201026 14.72355691 -21.70568411 11.33295887 -19.3125 6.8125 C-13.55349096 -0.19170018 -8.97319536 -1.33668066 0 0 Z " fill="#F1F1F1" transform="translate(126,80)"/>
<path d="M0 0 C0.125 5.75 0.125 5.75 -1 8 C-1.7425 7.835 -2.485 7.67 -3.25 7.5 C-13.44427074 6.06665919 -13.44427074 6.06665919 -23.125 8.75 C-25.99041554 10.99249912 -26.79910545 11.7127587 -28 15 C-28.95815119 23.8196709 -28.95815119 23.8196709 -26.94921875 32.28125 C-24.18885483 35.6034579 -21.97957469 36.90486145 -17.7421875 37.31640625 C-12.37109375 37.65820312 -12.37109375 37.65820312 -7 38 C-7 33.38 -7 28.76 -7 24 C-4.03 24 -1.06 24 2 24 C2 30.27 2 36.54 2 43 C-7.09404239 46.03134746 -17.2135389 48.57300926 -26.5 44.5 C-32.2790748 40.9543231 -36.98983081 35.48564021 -39 29 C-39.80783397 21.13770892 -40.08185701 13.43102259 -35 7 C-25.58836535 -3.41236543 -12.87092591 -3.96028489 0 0 Z " fill="#EDEDED" transform="translate(238,339)"/>
<path d="M0 0 C0.33 1.65 0.66 3.3 1 5 C-0.15628906 5.67095703 -0.15628906 5.67095703 -1.3359375 6.35546875 C-2.33882813 6.96003906 -3.34171875 7.56460937 -4.375 8.1875 C-5.87160156 9.07501953 -5.87160156 9.07501953 -7.3984375 9.98046875 C-10.22694778 12.17617418 -11.02735933 13.60747622 -12 17 C-11.34 16.67 -10.68 16.34 -10 16 C-5.08003072 15.46881748 -1.22672403 15.24894447 3.0625 17.875 C6.07305679 21.17690099 6.29187623 23.43843194 6.2109375 27.90625 C5.73901532 32.59051463 3.79358672 35.28199297 0.375 38.375 C-3.94870373 40.45678328 -7.28573036 40.82097694 -12 40 C-16.27313153 37.98437192 -19.13019015 35.44760079 -21.30078125 31.1796875 C-23.35301554 24.7822197 -22.98741489 18.10364111 -19.9375 12.125 C-16.15028008 6.21950453 -7.70211981 -3.25858915 0 0 Z " fill="#EDEDED" transform="translate(266,411)"/>
<path d="M0 0 C3.96564625 1.9107894 6.41068394 4.93135088 8 9 C8.8716905 16.45065982 9.09465433 23.25065019 4.41796875 29.39453125 C3.95003906 29.92433594 3.48210937 30.45414062 3 31 C2.21625 31.9075 1.4325 32.815 0.625 33.75 C-3.6414753 37.40697882 -7.19383888 40 -13 40 C-13.66 38.02 -14.32 36.04 -15 34 C-14.39671875 33.68546875 -13.7934375 33.3709375 -13.171875 33.046875 C-5.43083868 29.1096658 -5.43083868 29.1096658 -1 22 C-1.515625 22.33 -2.03125 22.66 -2.5625 23 C-5.89310774 24.36640318 -8.42646082 24.31346835 -12 24 C-15.62535141 22.352113 -18.20557709 20.58884581 -20 17 C-20.58703194 12.7138627 -20.47084867 9.1399494 -18.8125 5.125 C-13.69594276 -0.87372228 -7.40617954 -1.08236453 0 0 Z " fill="#EEEEEE" transform="translate(313,410)"/>
<path d="M0 0 C3.68611691 1.71141142 5.42111183 3.24744538 7.875 6.4375 C9.92934058 12.94291185 10.04637256 19.97102681 7.8125 26.4375 C2.98995377 33.25558259 -1.02648531 37.91486952 -9.4375 39.75 C-10.283125 39.8325 -11.12875 39.915 -12 40 C-12.33 38.02 -12.66 36.04 -13 34 C-12.48050781 33.70867187 -11.96101562 33.41734375 -11.42578125 33.1171875 C-6.58707149 30.27299212 -3.35090767 27.50278218 0 23 C-0.99 23.33 -1.98 23.66 -3 24 C-11.835 24.57 -11.835 24.57 -16 21 C-19.02005461 16.77192354 -19.56506696 13.20916222 -18.75 8.19140625 C-17.62209845 4.89581891 -16.01110538 3.09340068 -13.23046875 1.03515625 C-8.89084613 -0.97885425 -4.64054076 -0.81191965 0 0 Z " fill="#EFEFEF" transform="translate(230,410)"/>
<path d="M0 0 C8.58 0 17.16 0 26 0 C27.53256869 3.06513737 27.20763564 5.60620858 27 9 C25.87011719 12.23803711 25.87011719 12.23803711 24.296875 15.52734375 C24.01781311 16.11995499 23.73875122 16.71256622 23.45123291 17.32313538 C22.56329698 19.20083036 21.65705027 21.06897644 20.75 22.9375 C20.15633519 24.18627117 19.56387697 25.43561671 18.97265625 26.68554688 C16.05744427 32.82805349 13.06796991 38.93240605 10 45 C7.03 45 4.06 45 1 45 C3.49702272 36.54354017 7.31227337 28.82218114 11.1875 20.9375 C11.84881748 19.58162893 12.50962887 18.2255109 13.16992188 16.86914062 C14.77321359 13.57605588 16.3867544 10.28829322 18 7 C12.06 7 6.12 7 0 7 C0 4.69 0 2.38 0 0 Z " fill="#F3F3F3" transform="translate(74,81)"/>
<path d="M0 0 C2.97 0 5.94 0 9 0 C9.33 13.2 9.66 26.4 10 40 C11.65 40.33 13.3 40.66 15 41 C15 43.31 15 45.62 15 48 C13.25215533 48.13560864 11.50126074 48.23227209 9.75 48.3125 C8.77546875 48.37050781 7.8009375 48.42851562 6.796875 48.48828125 C4 48 4 48 1.84960938 46.08789062 C-0.76548698 41.72203283 -0.50333989 38.09975565 -0.390625 33.10546875 C-0.38496521 32.15811356 -0.37930542 31.21075836 -0.37347412 30.23469543 C-0.35114084 27.21844265 -0.3009498 24.20339178 -0.25 21.1875 C-0.22993107 19.13868907 -0.21168099 17.08985946 -0.1953125 15.04101562 C-0.15128594 10.02688291 -0.0822791 5.01364501 0 0 Z " fill="#F9F9F9" transform="translate(287,336)"/>
<path d="M0 0 C3.81248426 -0.02887236 7.6249407 -0.04675492 11.4375 -0.0625 C12.52611328 -0.07087891 13.61472656 -0.07925781 14.73632812 -0.08789062 C15.77080078 -0.09111328 16.80527344 -0.09433594 17.87109375 -0.09765625 C18.82943115 -0.10289307 19.78776855 -0.10812988 20.77514648 -0.11352539 C23 0 23 0 24 1 C24.42124602 6.95577066 23.53524905 11.16060352 20.9375 16.5625 C20.62675537 17.23925781 20.31601074 17.91601562 19.99584961 18.61328125 C19.01127508 20.7490392 18.00615641 22.87433781 17 25 C16.32413241 26.45638773 15.64963955 27.91341426 14.9765625 29.37109375 C13.33350073 32.92164175 11.67195686 36.46297272 10 40 C7.36 40 4.72 40 2 40 C2.64502023 35.7428665 4.11313553 32.27401281 5.94140625 28.38671875 C6.3721067 27.46509697 6.3721067 27.46509697 6.81150818 26.52485657 C7.72339838 24.57662672 8.64281193 22.632059 9.5625 20.6875 C10.18474626 19.36156334 10.80649639 18.03539374 11.42773438 16.70898438 C12.94518592 13.46945831 14.47277373 10.23500086 16 7 C10.72 7 5.44 7 0 7 C0 4.69 0 2.38 0 0 Z " fill="#ECECEC" transform="translate(325,410)"/>
<path d="M0 0 C0 13.2 0 26.4 0 40 C-2.97 40 -5.94 40 -9 40 C-9 30.1 -9 20.2 -9 10 C-10.65 10.66 -12.3 11.32 -14 12 C-14.99 12 -15.98 12 -17 12 C-17.33 9.69 -17.66 7.38 -18 5 C-16.32091835 4.14983207 -14.63120927 3.32063975 -12.9375 2.5 C-11.99777344 2.0359375 -11.05804688 1.571875 -10.08984375 1.09375 C-7 0 -7 0 0 0 Z " fill="#E5E5E5" transform="translate(205,410)"/>
<path d="M0 0 C4.24925879 0.7804761 5.6047681 2.02047461 8.0625 5.5625 C8.9143329 10.00649617 8.57857159 13.48548102 6.625 17.5625 C5.0625 19.5625 5.0625 19.5625 4.0625 20.5625 C-1.73338336 21.02990995 -1.73338336 21.02990995 -3.9375 20.5625 C-6.28736162 18.3293358 -6.88628023 16.90211938 -7.37109375 13.6875 C-7.37238281 12.65625 -7.37367188 11.625 -7.375 10.5625 C-7.39433594 9.53125 -7.41367188 8.5 -7.43359375 7.4375 C-6.64588578 2.87251524 -4.50242612 0.8621667 0 0 Z " fill="#080808" transform="translate(262.9375,356.4375)"/>
<path d="M0 0 C1.8871875 0.05607422 1.8871875 0.05607422 3.8125 0.11328125 C3.89319658 3.07215584 3.95284665 6.02884715 4 8.98828125 C4.03770508 10.25091797 4.03770508 10.25091797 4.07617188 11.5390625 C4.09067383 12.74755859 4.09067383 12.74755859 4.10546875 13.98046875 C4.12903442 15.09591064 4.12903442 15.09591064 4.15307617 16.23388672 C4.04068604 16.85408691 3.9282959 17.47428711 3.8125 18.11328125 C0.10834707 20.58271654 -1.80894505 20.58241214 -6.1875 20.11328125 C-9.14659491 17.1610361 -9.64190541 14.78499331 -9.6875 10.67578125 C-9.56207309 6.7666426 -9.31796752 5.32121386 -7.1875 1.92578125 C-4.13679998 0.08264999 -3.36467173 -0.09997488 0 0 Z " fill="#080808" transform="translate(324.1875,356.88671875)"/>
<path d="M0 0 C3.1190035 2.71913126 3.93764029 4.17373382 4.25 8.3125 C4.1675 9.199375 4.085 10.08625 4 11 C0.35918336 13.33012265 -2.74941713 13.46369995 -7 13 C-9.66266871 10.76679398 -9.95347082 9.3799883 -10.375 5.9375 C-10 3 -10 3 -8.9375 1.125 C-5.81247137 -0.68953275 -3.52644482 -0.49493962 0 0 Z " fill="#141414" transform="translate(124,87)"/>
<path d="M0 0 C2 2 2 2 2.25 5.5 C2 9 2 9 0 11 C-3.4375 11.4375 -3.4375 11.4375 -7 11 C-9 8.8125 -9 8.8125 -10 6 C-9.8125 3.25 -9.8125 3.25 -9 1 C-5.98675805 -0.50662097 -3.31713623 -0.17770373 0 0 Z " fill="#111111" transform="translate(262,433)"/>
<path d="M0 0 C1.875 1.625 1.875 1.625 3 4 C3.1875 7.25 3.1875 7.25 3 10 C0.78704384 11.10647808 -0.54672699 11.19588368 -3 11.25 C-4.051875 11.28867187 -4.051875 11.28867187 -5.125 11.328125 C-5.74375 11.21984375 -6.3625 11.1115625 -7 11 C-9.15502531 7.76746204 -9.46856135 6.74849077 -9 3 C-6.74280427 -0.63659311 -4.02330328 -0.58673173 0 0 Z " fill="#0B0B0B" transform="translate(228,416)"/>
<path d="M0 0 C2.14915785 3.22373677 2.38286803 4.26703674 2 8 C0 10 0 10 -1.875 10.265625 C-2.57625 10.26046875 -3.2775 10.2553125 -4 10.25 C-4.70125 10.25515625 -5.4025 10.2603125 -6.125 10.265625 C-8 10 -8 10 -10 8 C-10.32954432 4.90228335 -10.45334601 2.82668977 -8.9375 0.0625 C-5.78433176 -1.66665678 -3.37491745 -0.8590699 0 0 Z " fill="#101010" transform="translate(311,417)"/>
<path d="M0 0 C5.56818182 0.56818182 5.56818182 0.56818182 7 2 C7.125 5 7.125 5 7 8 C6 9 6 9 3.0625 9.1875 C0 9 0 9 -2 7 C-2.25 4.5 -2.25 4.5 -2 2 C-1.34 1.34 -0.68 0.68 0 0 Z " fill="#ECECEC" transform="translate(280,441)"/>
<path d="M0 0 C2.35953094 2.35953094 2.49141413 3.77895617 3 7 C2.01 6.67 1.02 6.34 0 6 C-0.99 7.98 -1.98 9.96 -3 12 C-4 10 -4 10 -3.22265625 7.6171875 C-2.83980469 6.71226562 -2.45695313 5.80734375 -2.0625 4.875 C-1.68222656 3.96492187 -1.30195313 3.05484375 -0.91015625 2.1171875 C-0.60980469 1.41851562 -0.30945313 0.71984375 0 0 Z " fill="#414141" transform="translate(209,181)"/>
<path d="M0 0 C0.66 0.33 1.32 0.66 2 1 C-0.64 3.64 -3.28 6.28 -6 9 C-7.32 8.34 -8.64 7.68 -10 7 C-9.36191406 6.57847656 -8.72382813 6.15695312 -8.06640625 5.72265625 C-7.24011719 5.17480469 -6.41382813 4.62695312 -5.5625 4.0625 C-4.73878906 3.51722656 -3.91507812 2.97195313 -3.06640625 2.41015625 C-1.10014075 1.16197019 -1.10014075 1.16197019 0 0 Z " fill="#DCDCDC" transform="translate(370,276)"/>
<path d="M0 0 C-2.297221 1.74271938 -4.59866729 3.39911152 -7 5 C-7.66 5.99 -8.32 6.98 -9 8 C-9.22223194 5.25913944 -9.34781139 3.56036279 -7.875 1.1875 C-5.22464043 -0.49106106 -3.06753576 -0.20450238 0 0 Z " fill="#323232" transform="translate(228,416)"/>
<path d="M0 0 C4.455 0.99 4.455 0.99 9 2 C8.67 2.66 8.34 3.32 8 4 C5.03 4 2.06 4 -1 4 C-0.67 2.68 -0.34 1.36 0 0 Z " fill="#B7B7B7" transform="translate(76,122)"/>
<path d="M0 0 C0.33 0.99 0.66 1.98 1 3 C3.97 3.495 3.97 3.495 7 4 C7 4.33 7 4.66 7 5 C3.7 5.66 0.4 6.32 -3 7 C-1.125 1.125 -1.125 1.125 0 0 Z " fill="#4A4A4A" transform="translate(256,422)"/>
</svg>
